<svg width="16" height="16" viewBox="0 0 16 16" fill="none" xmlns="http://www.w3.org/2000/svg">
<g clip-path="url(#clip0_30_3500)">
<path d="M12.6668 5.33333V4.66667C12.6668 3.42899 12.1752 2.242 11.3 1.36684C10.4248 0.491665 9.23784 0 8.00016 0C6.76249 0 5.5755 0.491665 4.70033 1.36684C3.82516 2.242 3.3335 3.42899 3.3335 4.66667V5.33333H1.3335V14C1.3335 14.5304 1.54421 15.0391 1.91928 15.4142C2.29436 15.7893 2.80306 16 3.3335 16H12.6668C13.1973 16 13.706 15.7893 14.081 15.4142C14.4561 15.0391 14.6668 14.5304 14.6668 14V5.33333H12.6668ZM8.66683 12H7.3335V9.33333H8.66683V12ZM11.3335 5.33333H4.66683V4.66667C4.66683 3.78261 5.01802 2.93477 5.64314 2.30964C6.26826 1.68452 7.11611 1.33333 8.00016 1.33333C8.88422 1.33333 9.73206 1.68452 10.3572 2.30964C10.9823 2.93477 11.3335 3.78261 11.3335 4.66667V5.33333Z" fill="#C6C6C6"/>
</g>
<defs>
<clipPath id="clip0_30_3500">
<rect width="16" height="16" fill="white"/>
</clipPath>
</defs>
</svg>
